<svg width="14" height="15" viewBox="0 0 14 15" fill="none" xmlns="http://www.w3.org/2000/svg">
<path d="M7 12.1831C7.30285 12.1831 7.72271 11.0833 7.72271 9.30526V5.15642C8.88594 4.85349 9.73255 3.83274 9.73255 2.6276C9.73255 1.1788 8.52114 0 7 0C5.48574 0 4.27434 1.1788 4.27434 2.6276C4.27434 3.82615 5.11406 4.8469 6.27729 5.14983V9.30526C6.27729 11.0767 6.70403 12.1831 7 12.1831ZM6.22911 2.77248C5.73353 2.77248 5.29302 2.3576 5.29302 1.87027C5.29302 1.38953 5.73353 0.981234 6.22911 0.981234C6.74533 0.981234 7.16519 1.38953 7.16519 1.87027C7.16519 2.3576 6.74533 2.77248 6.22911 2.77248ZM7 14.7778C11.3776 14.7778 14 13.3685 14 11.7485C14 9.97698 11.1642 8.83111 8.8997 8.73891V9.91771C10.4415 9.98356 12.4307 10.6619 12.4307 11.6168C12.4307 12.7495 10.1455 13.5331 7 13.5331C3.85447 13.5331 1.5762 12.756 1.5762 11.6168C1.5762 10.6619 3.56539 9.98356 5.1003 9.91771V8.73891C2.83579 8.83111 0 9.97698 0 11.7485C0 13.3685 2.62242 14.7778 7 14.7778Z" fill="#919191"/>
</svg>
